name rise38.3101peak57.3503fall81.6963.mot
datacolumns 19
datarows 33
range 5.44165500000000 5.49498600000000
endheader
time	ground_force1_vx	ground_force1_vy	ground_force1_vz	ground_force1_px	ground_force1_py	ground_force1_pz	ground_force2_vx	ground_force2_vy	ground_force2_vz	ground_force2_px	ground_force2_py	ground_force2_pz	ground_torque1_x	ground_torque1_y	ground_torque1_z	ground_torque2_x	ground_torque2_y	ground_torque2_z	
5.44165500000000	73.56781599999999	798.50508500000001	61.05974400000000	0.35895600000000	0.00000000000000	0.11579300000000	0.00000000000000	0.00000000000000	0.00000000000000	0.00000000000000	0.00000000000000	0.00000000000000	0.00000000000000	26.93751200000000	0.00000000000000	0.00000000000000	0.00000000000000	0.00000000000000	
5.44332000000000	72.82097400000001	800.53507400000001	61.32012400000000	0.35791000000000	0.00000000000000	0.11585500000000	0.00000000000000	0.00000000000000	0.00000000000000	0.00000000000000	0.00000000000000	0.00000000000000	0.00000000000000	27.14548300000000	0.00000000000000	0.00000000000000	0.00000000000000	0.00000000000000	
5.44498000000000	72.06229700000000	802.38073799999995	61.57283000000000	0.35687100000000	0.00000000000000	0.11591800000000	0.00000000000000	0.00000000000000	0.00000000000000	0.00000000000000	0.00000000000000	0.00000000000000	0.00000000000000	27.35094400000000	0.00000000000000	0.00000000000000	0.00000000000000	0.00000000000000	
5.44665400000000	71.29265700000001	804.04197399999998	61.81726900000000	0.35583700000000	0.00000000000000	0.11598000000000	0.00000000000000	0.00000000000000	0.00000000000000	0.00000000000000	0.00000000000000	0.00000000000000	0.00000000000000	27.55339200000000	0.00000000000000	0.00000000000000	0.00000000000000	0.00000000000000	
5.44831800000000	70.51288300000000	805.51891200000000	62.05280500000000	0.35481000000000	0.00000000000000	0.11604400000000	0.00000000000000	0.00000000000000	0.00000000000000	0.00000000000000	0.00000000000000	0.00000000000000	0.00000000000000	27.75229700000000	0.00000000000000	0.00000000000000	0.00000000000000	0.00000000000000	
5.44998400000000	69.72376100000000	806.81192599999997	62.27876600000000	0.35378800000000	0.00000000000000	0.11610700000000	0.00000000000000	0.00000000000000	0.00000000000000	0.00000000000000	0.00000000000000	0.00000000000000	0.00000000000000	27.94710700000000	0.00000000000000	0.00000000000000	0.00000000000000	0.00000000000000	
5.45165100000000	68.92603500000000	807.92164300000002	62.49445000000000	0.35277000000000	0.00000000000000	0.11617000000000	0.00000000000000	0.00000000000000	0.00000000000000	0.00000000000000	0.00000000000000	0.00000000000000	0.00000000000000	28.13725300000000	0.00000000000000	0.00000000000000	0.00000000000000	0.00000000000000	
5.45332300000000	68.12041000000001	808.84894299999996	62.69913100000000	0.35175600000000	0.00000000000000	0.11623400000000	0.00000000000000	0.00000000000000	0.00000000000000	0.00000000000000	0.00000000000000	0.00000000000000	0.00000000000000	28.32215200000000	0.00000000000000	0.00000000000000	0.00000000000000	0.00000000000000	
5.45498900000000	67.30755200000000	809.59497199999998	62.89206700000000	0.35074500000000	0.00000000000000	0.11629800000000	0.00000000000000	0.00000000000000	0.00000000000000	0.00000000000000	0.00000000000000	0.00000000000000	0.00000000000000	28.50121300000000	0.00000000000000	0.00000000000000	0.00000000000000	0.00000000000000	
5.45665400000000	66.48809199999999	810.16114100000004	63.07250700000000	0.34973600000000	0.00000000000000	0.11636200000000	0.00000000000000	0.00000000000000	0.00000000000000	0.00000000000000	0.00000000000000	0.00000000000000	0.00000000000000	28.67384100000000	0.00000000000000	0.00000000000000	0.00000000000000	0.00000000000000	
5.45832100000000	65.66262500000001	810.54913199999999	63.23969400000000	0.34872800000000	0.00000000000000	0.11642500000000	0.00000000000000	0.00000000000000	0.00000000000000	0.00000000000000	0.00000000000000	0.00000000000000	0.00000000000000	28.83943700000000	0.00000000000000	0.00000000000000	0.00000000000000	0.00000000000000	
5.45998600000000	64.83171700000000	810.76089899999999	63.39287900000000	0.34772100000000	0.00000000000000	0.11648900000000	0.00000000000000	0.00000000000000	0.00000000000000	0.00000000000000	0.00000000000000	0.00000000000000	0.00000000000000	28.99741200000000	0.00000000000000	0.00000000000000	0.00000000000000	0.00000000000000	
5.46165200000000	63.99590300000000	810.79867100000001	63.53132000000000	0.34671200000000	0.00000000000000	0.11655300000000	0.00000000000000	0.00000000000000	0.00000000000000	0.00000000000000	0.00000000000000	0.00000000000000	0.00000000000000	29.14718200000000	0.00000000000000	0.00000000000000	0.00000000000000	0.00000000000000	
5.46331900000000	63.15569000000000	810.66494899999998	63.65429500000000	0.34570200000000	0.00000000000000	0.11661600000000	0.00000000000000	0.00000000000000	0.00000000000000	0.00000000000000	0.00000000000000	0.00000000000000	0.00000000000000	29.28817500000000	0.00000000000000	0.00000000000000	0.00000000000000	0.00000000000000	
5.46498000000000	62.31156200000000	810.36251100000004	63.76110600000000	0.34469000000000	0.00000000000000	0.11668000000000	0.00000000000000	0.00000000000000	0.00000000000000	0.00000000000000	0.00000000000000	0.00000000000000	0.00000000000000	29.41984000000000	0.00000000000000	0.00000000000000	0.00000000000000	0.00000000000000	
5.46664700000000	61.46398000000000	809.89440200000001	63.85108200000000	0.34367300000000	0.00000000000000	0.11674300000000	0.00000000000000	0.00000000000000	0.00000000000000	0.00000000000000	0.00000000000000	0.00000000000000	0.00000000000000	29.54164300000000	0.00000000000000	0.00000000000000	0.00000000000000	0.00000000000000	
5.46831400000000	60.61338700000000	809.26393700000006	63.92359400000000	0.34265200000000	0.00000000000000	0.11680600000000	0.00000000000000	0.00000000000000	0.00000000000000	0.00000000000000	0.00000000000000	0.00000000000000	0.00000000000000	29.65307700000000	0.00000000000000	0.00000000000000	0.00000000000000	0.00000000000000	
5.46998900000000	59.76020900000000	808.47469699999999	63.97805000000000	0.34162500000000	0.00000000000000	0.11686800000000	0.00000000000000	0.00000000000000	0.00000000000000	0.00000000000000	0.00000000000000	0.00000000000000	0.00000000000000	29.75366300000000	0.00000000000000	0.00000000000000	0.00000000000000	0.00000000000000	
5.47165100000000	58.90485400000000	807.53051700000003	64.01390900000000	0.34059100000000	0.00000000000000	0.11693000000000	0.00000000000000	0.00000000000000	0.00000000000000	0.00000000000000	0.00000000000000	0.00000000000000	0.00000000000000	29.84295400000000	0.00000000000000	0.00000000000000	0.00000000000000	0.00000000000000	
5.47331600000000	58.04772200000000	806.43548699999997	64.03068200000000	0.33954800000000	0.00000000000000	0.11699200000000	0.00000000000000	0.00000000000000	0.00000000000000	0.00000000000000	0.00000000000000	0.00000000000000	0.00000000000000	29.92054000000000	0.00000000000000	0.00000000000000	0.00000000000000	0.00000000000000	
5.47498500000000	57.18920200000000	805.19394100000000	64.02794000000000	0.33849600000000	0.00000000000000	0.11705300000000	0.00000000000000	0.00000000000000	0.00000000000000	0.00000000000000	0.00000000000000	0.00000000000000	0.00000000000000	29.98604700000000	0.00000000000000	0.00000000000000	0.00000000000000	0.00000000000000	
5.47665000000000	56.32967400000000	803.81044799999995	64.00531200000000	0.33743400000000	0.00000000000000	0.11711400000000	0.00000000000000	0.00000000000000	0.00000000000000	0.00000000000000	0.00000000000000	0.00000000000000	0.00000000000000	30.03914400000000	0.00000000000000	0.00000000000000	0.00000000000000	0.00000000000000	
5.47831900000000	55.46951400000000	802.28980500000000	63.96249700000000	0.33636000000000	0.00000000000000	0.11717400000000	0.00000000000000	0.00000000000000	0.00000000000000	0.00000000000000	0.00000000000000	0.00000000000000	0.00000000000000	30.07954300000000	0.00000000000000	0.00000000000000	0.00000000000000	0.00000000000000	
5.47998400000000	54.60909400000000	800.63702400000000	63.89926200000000	0.33527300000000	0.00000000000000	0.11723400000000	0.00000000000000	0.00000000000000	0.00000000000000	0.00000000000000	0.00000000000000	0.00000000000000	0.00000000000000	30.10700200000000	0.00000000000000	0.00000000000000	0.00000000000000	0.00000000000000	
5.48165300000000	53.74878500000000	798.85732199999995	63.81544700000000	0.33417300000000	0.00000000000000	0.11729300000000	0.00000000000000	0.00000000000000	0.00000000000000	0.00000000000000	0.00000000000000	0.00000000000000	0.00000000000000	30.12132700000000	0.00000000000000	0.00000000000000	0.00000000000000	0.00000000000000	
5.48332100000000	52.88895900000000	796.95610799999997	63.71096600000000	0.33305800000000	0.00000000000000	0.11735100000000	0.00000000000000	0.00000000000000	0.00000000000000	0.00000000000000	0.00000000000000	0.00000000000000	0.00000000000000	30.12237500000000	0.00000000000000	0.00000000000000	0.00000000000000	0.00000000000000	
5.48498700000000	52.02998800000000	794.93897100000004	63.58581100000000	0.33192800000000	0.00000000000000	0.11740900000000	0.00000000000000	0.00000000000000	0.00000000000000	0.00000000000000	0.00000000000000	0.00000000000000	0.00000000000000	30.11005200000000	0.00000000000000	0.00000000000000	0.00000000000000	0.00000000000000	
5.48665100000000	51.17224700000000	792.81166900000005	63.44005300000000	0.33078100000000	0.00000000000000	0.11746600000000	0.00000000000000	0.00000000000000	0.00000000000000	0.00000000000000	0.00000000000000	0.00000000000000	0.00000000000000	30.08431700000000	0.00000000000000	0.00000000000000	0.00000000000000	0.00000000000000	
5.48831300000000	50.31611800000000	790.58010700000000	63.27383900000000	0.32961600000000	0.00000000000000	0.11752300000000	0.00000000000000	0.00000000000000	0.00000000000000	0.00000000000000	0.00000000000000	0.00000000000000	0.00000000000000	30.04518000000000	0.00000000000000	0.00000000000000	0.00000000000000	0.00000000000000	
5.48998200000000	49.46198600000000	788.25033199999996	63.08740000000000	0.32843400000000	0.00000000000000	0.11757900000000	0.00000000000000	0.00000000000000	0.00000000000000	0.00000000000000	0.00000000000000	0.00000000000000	0.00000000000000	29.99270500000000	0.00000000000000	0.00000000000000	0.00000000000000	0.00000000000000	
5.49165000000000	48.61024500000000	785.82851100000005	62.88104100000000	0.32723200000000	0.00000000000000	0.11763400000000	0.00000000000000	0.00000000000000	0.00000000000000	0.00000000000000	0.00000000000000	0.00000000000000	0.00000000000000	29.92700800000000	0.00000000000000	0.00000000000000	0.00000000000000	0.00000000000000	
5.49331300000000	47.76129400000000	783.32091800000001	62.65514900000000	0.32601100000000	0.00000000000000	0.11768900000000	0.00000000000000	0.00000000000000	0.00000000000000	0.00000000000000	0.00000000000000	0.00000000000000	0.00000000000000	29.84825800000000	0.00000000000000	0.00000000000000	0.00000000000000	0.00000000000000	
5.49498600000000	46.91554000000000	780.73391800000002	62.41018800000000	0.32476900000000	0.00000000000000	0.11774300000000	0.00000000000000	0.00000000000000	0.00000000000000	0.00000000000000	0.00000000000000	0.00000000000000	0.00000000000000	29.75667500000000	0.00000000000000	0.00000000000000	0.00000000000000	0.00000000000000	
